<?xml version="1.0" encoding="UTF-8"?>
<svg version="1.1" xmlns="http://www.w3.org/2000/svg" width="1024" height="1024">
<path d="M0 0 C337.92 0 675.84 0 1024 0 C1024 337.92 1024 675.84 1024 1024 C686.08 1024 348.16 1024 0 1024 C0 686.08 0 348.16 0 0 Z " fill="#F4F4F5" transform="translate(0,0)"/>
<path d="M0 0 C10.26857938 7.13040619 15.78146596 16.61938312 20.83203125 27.71484375 C21.24453125 26.92980469 21.65703125 26.14476563 22.08203125 25.3359375 C28.33480896 13.96090662 35.29356675 7.56099858 47.58203125 3.46484375 C57.02865861 1.43132318 66.28167302 2.07035927 74.83203125 6.71484375 C84.96958537 13.9182288 91.38265091 23.52277894 93.83203125 35.71484375 C94.30670569 39.37728281 94.62875476 43.02782878 94.83203125 46.71484375 C95.5075 46.36550781 96.18296875 46.01617187 96.87890625 45.65625 C98.21695313 44.97369141 98.21695313 44.97369141 99.58203125 44.27734375 C100.90460938 43.59865234 100.90460938 43.59865234 102.25390625 42.90625 C109.62104974 39.50173672 118.40745079 39.51070875 126.01953125 42.21484375 C137.81311385 47.69583566 143.35731544 57.22806152 147.671875 69.0078125 C149.19679109 74.40623809 149.44262808 80.14023001 149.83203125 85.71484375 C151.13140625 84.97234375 151.13140625 84.97234375 152.45703125 84.21484375 C159.20304104 81.32958498 168.20763947 81.534694 175.14453125 83.77734375 C185.71737308 88.67970845 192.24825919 97.1877601 196.70703125 107.77734375 C199.35586583 115.77259903 198.95657007 124.39841787 198.83203125 132.71484375 C198.83203125 133.70484375 198.83203125 134.69484375 198.83203125 135.71484375 C200.04439453 135.23337891 200.04439453 135.23337891 201.28125 134.7421875 C209.27861761 132.42831766 220.46286144 131.83191826 228.01953125 135.71484375 C230.01953125 137.125 230.01953125 137.125 231.83203125 138.71484375 C232.45078125 139.24980469 233.06953125 139.78476563 233.70703125 140.3359375 C245.15372826 151.80730411 249.21007115 172.6902818 250.01953125 188.33984375 C249.96465627 193.04994617 249.15041087 197.6379155 248.3671875 202.2734375 C245.00088483 223.92097508 247.293922 243.72864003 253.55786133 264.59033203 C258.42127816 281.10742484 260.9948653 298.19796505 261.08203125 315.40234375 C261.11296875 316.85350586 261.11296875 316.85350586 261.14453125 318.33398438 C261.23809656 336.77804673 257.15541421 355.10635612 253.45703125 373.08984375 C253.02507216 375.21772419 252.59377777 377.34573965 252.16308594 379.47387695 C250.98360379 385.29309749 249.79554727 391.11053689 248.60583496 396.92767334 C246.94382029 405.06194911 245.29092492 413.19808472 243.63748169 421.33410645 C243.35125973 422.74243213 243.06503536 424.15075732 242.77880859 425.55908203 C242.56659385 426.60335672 242.56659385 426.60335672 242.35009193 427.66872787 C241.39453528 432.36940264 240.43543993 437.06934355 239.47509766 441.76904297 C236.94501479 454.17062085 234.45906735 466.57816515 232.07613373 479.00875282 C229.98166871 489.93420995 227.80324418 500.82458707 225.3036499 511.66497803 C221.97570067 526.12973472 219.01553349 540.63604231 216.26953125 555.22265625 C215.33089287 560.19047725 214.33037041 565.13888839 213.26953125 570.08203125 C206.2049686 603.22488466 203.56228131 636.77959861 202.41015625 670.609375 C201.59017189 694.50305582 200.63487472 718.08114665 196.83203125 741.71484375 C196.72761719 742.36461182 196.62320312 743.01437988 196.515625 743.68383789 C189.80696194 785.02193267 177.06001044 833.05293853 141.83203125 859.71484375 C123.50893826 872.59447145 103.06465314 879.1451201 80.83203125 880.71484375 C79.65898437 880.79992187 78.4859375 880.885 77.27734375 880.97265625 C56.56207853 881.70378326 35.56389616 874.77797861 18.83203125 862.71484375 C17.63320313 861.86599609 17.63320313 861.86599609 16.41015625 861 C11.90526943 857.66668609 8.15053604 854.10658455 4.57421875 849.796875 C3.39162822 848.38359977 2.16516604 847.00613072 0.90234375 845.6640625 C-4.79954501 839.59609917 -9.11317181 832.96695748 -13.16796875 825.71484375 C-13.50328613 825.11816895 -13.83860352 824.52149414 -14.18408203 823.90673828 C-28.32323021 798.31806427 -34.37832264 768.88959269 -34.41796875 739.83984375 C-34.42097488 738.75653275 -34.42097488 738.75653275 -34.42404175 737.65133667 C-34.43381686 722.93539899 -33.49731846 708.31873664 -32.32324219 693.65478516 C-31.55283593 683.93801945 -31.00305885 674.24685421 -30.68359375 664.50390625 C-30.24560936 651.31406642 -29.37191248 638.18374697 -28.35546875 625.02734375 C-28.17969387 622.70314297 -28.0041617 620.37892382 -27.82885742 618.0546875 C-26.39525683 599.17315433 -24.84156497 580.30160405 -23.2335968 561.43418884 C-22.93765584 557.94949322 -22.64614465 554.46444215 -22.35687256 550.97918701 C-22.1885817 548.96192612 -22.0157501 546.94504521 -21.84228516 544.92822266 C-16.06390441 472.8385138 -35.29468833 407.30273248 -70.16796875 344.71484375 C-85.47829974 317.14286815 -100.92966502 288.01841944 -102.16796875 255.71484375 C-102.20792969 254.79703125 -102.24789063 253.87921875 -102.2890625 252.93359375 C-102.70393116 233.60559521 -98.8455369 215.36131078 -94.16796875 196.71484375 C-93.98435791 195.98138733 -93.80074707 195.24793091 -93.61157227 194.49224854 C-93.01106743 192.09366815 -92.40990033 189.69525451 -91.80859375 187.296875 C-91.60609512 186.48862274 -91.4035965 185.68037048 -91.19496155 184.84762573 C-90.18833683 180.83327202 -89.17624963 176.82046753 -88.15209961 172.81054688 C-87.96190247 172.06044846 -87.77170532 171.31035004 -87.57574463 170.53752136 C-87.22015486 169.1351738 -86.86184819 167.73351093 -86.50018311 166.3327179 C-82.39597014 150.08265906 -82.7780791 131.66088242 -85.66796875 115.21484375 C-91.24363863 83.24074613 -83.74393726 48.8002443 -65.4296875 21.91723633 C-63.42464905 19.11258792 -61.31369406 16.41408419 -59.16796875 13.71484375 C-58.4615625 12.77898437 -57.75515625 11.843125 -57.02734375 10.87890625 C-43.62630529 -5.64904118 -18.45232544 -10.93840553 0 0 Z " fill="#F4F4F5" transform="translate(426.16796875,69.28515625)"/>
<path d="M0 0 C10.26857938 7.13040619 15.78146596 16.61938312 20.83203125 27.71484375 C21.24453125 26.92980469 21.65703125 26.14476563 22.08203125 25.3359375 C28.33480896 13.96090662 35.29356675 7.56099858 47.58203125 3.46484375 C57.02865861 1.43132318 66.28167302 2.07035927 74.83203125 6.71484375 C84.96958537 13.9182288 91.38265091 23.52277894 93.83203125 35.71484375 C94.30670569 39.37728281 94.62875476 43.02782878 94.83203125 46.71484375 C95.5075 46.36550781 96.18296875 46.01617187 96.87890625 45.65625 C98.21695313 44.97369141 98.21695313 44.97369141 99.58203125 44.27734375 C100.90460938 43.59865234 100.90460938 43.59865234 102.25390625 42.90625 C109.62104974 39.50173672 118.40745079 39.51070875 126.01953125 42.21484375 C137.81311385 47.69583566 143.35731544 57.22806152 147.671875 69.0078125 C149.19679109 74.40623809 149.44262808 80.14023001 149.83203125 85.71484375 C151.13140625 84.97234375 151.13140625 84.97234375 152.45703125 84.21484375 C159.20304104 81.32958498 168.20763947 81.534694 175.14453125 83.77734375 C185.71737308 88.67970845 192.24825919 97.1877601 196.70703125 107.77734375 C199.35586583 115.77259903 198.95657007 124.39841787 198.83203125 132.71484375 C198.83203125 133.70484375 198.83203125 134.69484375 198.83203125 135.71484375 C200.04439453 135.23337891 200.04439453 135.23337891 201.28125 134.7421875 C209.27861761 132.42831766 220.46286144 131.83191826 228.01953125 135.71484375 C230.01953125 137.125 230.01953125 137.125 231.83203125 138.71484375 C232.45078125 139.24980469 233.06953125 139.78476563 233.70703125 140.3359375 C245.15372826 151.80730411 249.21007115 172.6902818 250.01953125 188.33984375 C249.96465627 193.04994617 249.15041087 197.6379155 248.3671875 202.2734375 C245.00088483 223.92097508 247.293922 243.72864003 253.55786133 264.59033203 C258.42127816 281.10742484 260.9948653 298.19796505 261.08203125 315.40234375 C261.11296875 316.85350586 261.11296875 316.85350586 261.14453125 318.33398438 C261.23809656 336.77804673 257.15541421 355.10635612 253.45703125 373.08984375 C253.02507216 375.21772419 252.59377777 377.34573965 252.16308594 379.47387695 C250.98360379 385.29309749 249.79554727 391.11053689 248.60583496 396.92767334 C246.94382029 405.06194911 245.29092492 413.19808472 243.63748169 421.33410645 C243.35125973 422.74243213 243.06503536 424.15075732 242.77880859 425.55908203 C242.56659385 426.60335672 242.56659385 426.60335672 242.35009193 427.66872787 C241.39453528 432.36940264 240.43543993 437.06934355 239.47509766 441.76904297 C236.94501479 454.17062085 234.45906735 466.57816515 232.07613373 479.00875282 C229.98166871 489.93420995 227.80324418 500.82458707 225.3036499 511.66497803 C221.97570067 526.12973472 219.01553349 540.63604231 216.26953125 555.22265625 C215.33089287 560.19047725 214.33037041 565.13888839 213.26953125 570.08203125 C206.2049686 603.22488466 203.56228131 636.77959861 202.41015625 670.609375 C201.59017189 694.50305582 200.63487472 718.08114665 196.83203125 741.71484375 C196.72761719 742.36461182 196.62320312 743.01437988 196.515625 743.68383789 C189.80696194 785.02193267 177.06001044 833.05293853 141.83203125 859.71484375 C123.50893826 872.59447145 103.06465314 879.1451201 80.83203125 880.71484375 C79.65898437 880.79992187 78.4859375 880.885 77.27734375 880.97265625 C56.56207853 881.70378326 35.56389616 874.77797861 18.83203125 862.71484375 C17.63320313 861.86599609 17.63320313 861.86599609 16.41015625 861 C11.90526943 857.66668609 8.15053604 854.10658455 4.57421875 849.796875 C3.39162822 848.38359977 2.16516604 847.00613072 0.90234375 845.6640625 C-4.79954501 839.59609917 -9.11317181 832.96695748 -13.16796875 825.71484375 C-13.50328613 825.11816895 -13.83860352 824.52149414 -14.18408203 823.90673828 C-28.32323021 798.31806427 -34.37832264 768.88959269 -34.41796875 739.83984375 C-34.42097488 738.75653275 -34.42097488 738.75653275 -34.42404175 737.65133667 C-34.43381686 722.93539899 -33.49731846 708.31873664 -32.32324219 693.65478516 C-31.55283593 683.93801945 -31.00305885 674.24685421 -30.68359375 664.50390625 C-30.24560936 651.31406642 -29.37191248 638.18374697 -28.35546875 625.02734375 C-28.17969387 622.70314297 -28.0041617 620.37892382 -27.82885742 618.0546875 C-26.39525683 599.17315433 -24.84156497 580.30160405 -23.2335968 561.43418884 C-22.93765584 557.94949322 -22.64614465 554.46444215 -22.35687256 550.97918701 C-22.1885817 548.96192612 -22.0157501 546.94504521 -21.84228516 544.92822266 C-16.06390441 472.8385138 -35.29468833 407.30273248 -70.16796875 344.71484375 C-85.47829974 317.14286815 -100.92966502 288.01841944 -102.16796875 255.71484375 C-102.20792969 254.79703125 -102.24789063 253.87921875 -102.2890625 252.93359375 C-102.70393116 233.60559521 -98.8455369 215.36131078 -94.16796875 196.71484375 C-93.98435791 195.98138733 -93.80074707 195.24793091 -93.61157227 194.49224854 C-93.01106743 192.09366815 -92.40990033 189.69525451 -91.80859375 187.296875 C-91.60609512 186.48862274 -91.4035965 185.68037048 -91.19496155 184.84762573 C-90.18833683 180.83327202 -89.17624963 176.82046753 -88.15209961 172.81054688 C-87.96190247 172.06044846 -87.77170532 171.31035004 -87.57574463 170.53752136 C-87.22015486 169.1351738 -86.86184819 167.73351093 -86.50018311 166.3327179 C-82.39597014 150.08265906 -82.7780791 131.66088242 -85.66796875 115.21484375 C-91.24363863 83.24074613 -83.74393726 48.8002443 -65.4296875 21.91723633 C-63.42464905 19.11258792 -61.31369406 16.41408419 -59.16796875 13.71484375 C-58.4615625 12.77898437 -57.75515625 11.843125 -57.02734375 10.87890625 C-43.62630529 -5.64904118 -18.45232544 -10.93840553 0 0 Z M-51.4140625 19.2734375 C-61.47198932 32.12039082 -68.52329132 46.11560328 -73.16796875 61.71484375 C-73.48338623 62.70581055 -73.48338623 62.70581055 -73.80517578 63.71679688 C-79.10654159 80.75840036 -79.44712826 102.14416306 -75.66796875 119.58984375 C-72.21619418 135.71456208 -73.25764615 152.78427797 -77.16796875 168.71484375 C-77.63430045 170.71579964 -78.09901038 172.71713387 -78.5625 174.71875 C-80.6667816 183.71333671 -82.85093159 192.68075168 -85.29296875 201.58984375 C-86.83021732 207.24357385 -88.13929335 212.92273266 -89.35546875 218.65234375 C-89.52256348 219.43399902 -89.6896582 220.2156543 -89.86181641 221.02099609 C-93.26799981 237.4275046 -93.81581866 255.30994158 -90.16796875 271.71484375 C-89.91144531 272.92527344 -89.65492188 274.13570313 -89.390625 275.3828125 C-84.42449461 297.55303746 -74.71021676 317.74446552 -63.45874023 337.33154297 C-58.80085571 345.48133315 -54.41303647 353.75155417 -50.10546875 362.08984375 C-49.78609344 362.70581421 -49.46671814 363.32178467 -49.13766479 363.9564209 C-45.59772842 370.79176572 -42.20750772 377.64322867 -39.16796875 384.71484375 C-38.56073649 386.06548243 -37.95265802 387.41574097 -37.34375 388.765625 C-22.28783599 422.84842019 -12.13295941 461.42373838 -11.96484375 498.87890625 C-11.9542543 500.45685471 -11.9542543 500.45685471 -11.94345093 502.06668091 C-11.81862603 526.26519539 -12.39676916 550.16264549 -14.58935547 574.25585938 C-15.70422476 586.57775922 -16.71038909 598.90943905 -17.73206329 611.23934555 C-18.14059328 616.16165367 -18.55740984 621.08316359 -18.98159504 626.00414658 C-19.24938634 629.1237426 -19.51165501 632.24378843 -19.77282524 635.36394501 C-19.89559051 636.81660448 -20.02060558 638.26907608 -20.14818001 639.72132111 C-21.02675938 649.74277301 -21.31340279 659.66237619 -21.16796875 669.71484375 C-19.1873811 666.74396227 -18.4490382 664.6157935 -17.48046875 661.21484375 C-6.59185013 625.0132003 11.26986361 579.77886262 39.83203125 553.71484375 C40.49203125 553.71484375 41.15203125 553.71484375 41.83203125 553.71484375 C41.54183105 554.19501953 41.25163086 554.67519531 40.95263672 555.16992188 C37.82813102 560.34537892 34.71914919 565.52995301 31.62011719 570.72070312 C30.44294593 572.69187029 29.26395615 574.66195277 28.08300781 576.63085938 C6.11890762 613.32382676 -11.07591144 651.78883812 -20.16796875 693.71484375 C-20.37969727 694.67342285 -20.59142578 695.63200195 -20.80957031 696.61962891 C-27.76626101 729.31387022 -26.55960607 766.1729411 -15.16796875 797.71484375 C-14.9167627 798.41367676 -14.66555664 799.11250977 -14.40673828 799.83251953 C-4.64932775 826.35618477 11.53331543 847.15909128 35.83203125 861.71484375 C36.528125 862.14796875 37.22421875 862.58109375 37.94140625 863.02734375 C56.85231664 873.73794787 83.35052847 872.6161365 103.83203125 867.71484375 C120.3314775 863.12773727 133.84836829 854.79878841 145.83203125 842.71484375 C146.68410156 841.89628906 147.53617188 841.07773437 148.4140625 840.234375 C188.88759392 799.12346514 192.26290824 724.19000936 193.03929138 669.87593079 C193.64114717 627.83126669 200.26005392 587.25510482 208.45703125 546.08984375 C208.69882111 544.87531525 208.94061096 543.66078674 209.18972778 542.40945435 C209.89198365 538.89323856 210.59922271 535.37806788 211.30859375 531.86328125 C211.51787003 530.81739334 211.7271463 529.77150543 211.94276428 528.69392395 C213.189877 522.55383517 214.61820818 516.48467671 216.16348267 510.41308594 C216.98398209 507.10157468 217.65020654 503.77794104 218.26171875 500.421875 C218.61411621 498.50942993 218.61411621 498.50942993 218.97363281 496.55834961 C219.09291138 495.90220673 219.21218994 495.24606384 219.33508301 494.57003784 C219.98336225 491.00976779 220.64701925 487.4523503 221.30859375 483.89453125 C221.44044067 483.18403122 221.5722876 482.47353119 221.70812988 481.74150085 C225.09746089 463.49868364 228.95930321 445.35968621 232.83203125 427.21484375 C237.72777192 404.26454509 242.40469676 381.30789408 246.58203125 358.21484375 C246.73723236 357.36051758 246.89243347 356.50619141 247.05233765 355.62597656 C247.49800008 353.16662524 247.93918229 350.70651304 248.37890625 348.24609375 C248.51095963 347.51894165 248.643013 346.79178955 248.77906799 346.04260254 C250.50739448 336.29078933 251.04540056 326.71433054 251.07226562 316.81567383 C251.08190304 314.68074527 251.11298273 312.54681056 251.14453125 310.41210938 C251.2209414 300.51653117 249.98862584 291.36109268 247.83203125 281.71484375 C247.61724121 280.73104736 247.40245117 279.74725098 247.18115234 278.73364258 C246.61146531 276.19949333 246.01110184 273.67545522 245.39453125 271.15234375 C245.18280273 270.27175293 244.97107422 269.39116211 244.75292969 268.48388672 C243.16549744 261.93543119 241.44840844 255.42897555 239.62890625 248.94140625 C237.69683958 241.11843041 237.64023291 233.48016536 237.64453125 225.46484375 C237.64388672 224.22299316 237.64324219 222.98114258 237.64257812 221.70166016 C237.68389616 214.44001483 237.98188946 207.30164605 238.83203125 200.08984375 C238.92282959 199.31866211 239.01362793 198.54748047 239.10717773 197.75292969 C239.34839454 195.74018627 239.5901832 193.72751141 239.83203125 191.71484375 C241.05039959 179.63559194 238.03471129 164.1976019 231.83203125 153.71484375 C231.45175781 153.06257812 231.07148437 152.4103125 230.6796875 151.73828125 C227.58562246 146.93407803 224.33323756 144.9986194 218.95703125 143.02734375 C212.16953087 142.02918193 205.96710338 142.51097275 199.83203125 145.71484375 C191.98753594 152.16097251 189.90398477 162.05535148 188.83203125 171.71484375 C188.22956083 181.5517315 189.04163837 190.48192662 191.078125 200.09375 C191.83203125 203.71484375 191.83203125 203.71484375 192.30859375 207.53125 C192.98536435 211.64742939 194.77864223 213.15868092 197.83203125 215.71484375 C199.39844394 217.10628481 200.96049489 218.50264287 202.51953125 219.90234375 C203.80730469 221.05476563 203.80730469 221.05476563 205.12109375 222.23046875 C217.06075465 233.17229056 217.06075465 233.17229056 218.83203125 236.71484375 C208.87823373 230.71748121 199.04344525 224.60752144 189.40625 218.11328125 C173.94850273 207.70184876 157.99915911 198.01178909 142.08984375 188.3125 C138.39434775 186.05945016 134.70518347 183.79646217 131.01953125 181.52734375 C129.98957031 180.89570313 128.95960938 180.2640625 127.8984375 179.61328125 C125.81286491 178.32208599 123.73761794 177.01409456 121.671875 175.69140625 C82.74848128 151.00366442 34.38480958 147.06143203 -10.16796875 156.71484375 C-28.40860823 160.97628773 -46.54392935 166.37637344 -64.16796875 172.71484375 C-58.1219614 167.64438373 -52.08005986 163.81872896 -44.91796875 160.52734375 C-43.99411377 160.09663574 -43.07025879 159.66592773 -42.1184082 159.22216797 C-33.90452433 155.46343031 -25.73808306 152.66710618 -16.89453125 150.80859375 C-16.16210205 150.64665527 -15.42967285 150.4847168 -14.67504883 150.31787109 C-13.24526844 150.00643378 -11.80997943 149.71900831 -10.36987305 149.45947266 C-8.14659375 149.03846179 -8.14659375 149.03846179 -5.16796875 147.71484375 C-3.91041102 145.01474986 -3.91041102 145.01474986 -3.16796875 141.71484375 C-2.41534777 140.43073007 -1.61956256 139.17138572 -0.79296875 137.93359375 C2.03001932 133.57079401 3.9566445 129.04833424 5.83203125 124.21484375 C6.17379395 123.34408203 6.51555664 122.47332031 6.86767578 121.57617188 C13.59364675 104.19466312 17.18976822 88.23346929 17.09277344 69.55078125 C17.0820188 67.08699108 17.09274368 64.62392489 17.10546875 62.16015625 C17.12263866 44.6994551 14.30992025 28.65617784 1.80078125 15.59375 C-5.63609224 8.45801751 -12.34267626 5.54724753 -22.66796875 5.21484375 C-34.63992165 5.58821451 -43.5338422 10.29683872 -51.4140625 19.2734375 Z " fill="#222222" transform="translate(426.16796875,69.28515625)"/>
<path d="M0 0 C9.2120075 7.98792473 11.75918359 17.25295119 12.64770508 29.04150391 C13.50849682 42.86263117 13.50849682 42.86263117 10.1875 49.30859375 C8.49377596 53.14733013 7.69104276 57.09584833 6.8125 61.1875 C6.64596924 61.94885254 6.47943848 62.71020508 6.30786133 63.49462891 C4.38517223 72.52899873 3.8136409 81.26800615 3.81469727 90.48583984 C3.81252687 92.59884287 3.79437476 94.71130884 3.77539062 96.82421875 C3.74055047 105.38079861 4.45776642 113.56937823 6 122 C6.21616115 123.43634376 6.42604174 124.87367248 6.625 126.3125 C6.74875 127.199375 6.8725 128.08625 7 129 C5.76121094 128.855625 4.52242188 128.71125 3.24609375 128.5625 C-2.47297295 127.92816493 -8.2017712 127.45532182 -13.9375 127 C-15.02474365 126.91314941 -16.1119873 126.82629883 -17.23217773 126.73681641 C-26.48149439 126.01231265 -35.73360025 125.44971033 -45 125 C-47.90054102 107.76940512 -49.60279634 90.14975479 -47.50048828 72.71118164 C-46.96305854 68.07470277 -46.83229198 63.49201906 -46.7890625 58.828125 C-46.76098845 57.09374065 -46.73232395 55.35936578 -46.703125 53.625 C-46.6620596 50.94206067 -46.62509168 48.25929723 -46.59863281 45.57617188 C-46.43490345 30.23077838 -46.21410187 15.20905183 -35.3359375 3.15625 C-25.70499473 -5.81503916 -11.20411469 -7.02375593 0 0 Z " fill="#F3F4F4" transform="translate(498,88)"/>
<path d="M0 0 C6.96708305 5.86952887 10.59235896 13.51449788 11.7109375 22.44140625 C11.82740126 25.07944583 11.89592612 27.67945809 11.8984375 30.31640625 C11.91068359 30.98542969 11.92292969 31.65445313 11.93554688 32.34375 C11.95586669 39.37440676 10.08371728 45.48713394 7.8581543 52.12011719 C0.75418664 73.48293504 0.64309495 96.77054 6.7109375 118.44140625 C3.13583661 117.15161504 0.4112052 115.61745441 -2.6015625 113.31640625 C-13.1516117 105.78065682 -25.16836224 100.85204189 -37.2890625 96.44140625 C-38.95823007 95.78102617 -40.62577225 95.11645275 -42.2890625 94.44140625 C-42.2684375 93.31863281 -42.2478125 92.19585937 -42.2265625 91.0390625 C-42.2265625 87.12795253 -42.56346339 83.3227223 -43.00097656 79.43920898 C-47.40306058 40.31661989 -47.40306058 40.31661989 -39.2890625 24.44140625 C-39.09702385 23.00934663 -38.95556163 21.57003698 -38.8515625 20.12890625 C-38.25917541 13.10319534 -35.29285338 6.44519713 -30.2890625 1.44140625 C-20.9927648 -5.44763962 -9.86118764 -7.06383033 0 0 Z " fill="#F3F3F4" transform="translate(554.2890625,124.55859375)"/>
<path d="M0 0 C7.28621154 3.70934405 12.63997107 11.16880095 15.12890625 18.78515625 C17.72213222 33.05566322 16.01220211 47.62440566 11.78125 61.375 C11.45125 62.468125 11.12125 63.56125 10.78125 64.6875 C9.78125 67.375 9.78125 67.375 7.78125 69.375 C7.46984183 71.73181001 7.46984183 71.73181001 7.515625 74.4765625 C7.51175781 75.51756104 7.50789062 76.55855957 7.50390625 77.63110352 C7.51292969 78.74283936 7.52195312 79.8545752 7.53125 81 C7.53705078 82.6859729 7.53705078 82.6859729 7.54296875 84.40600586 C7.63357351 93.19529689 8.33428198 101.70611126 9.78125 110.375 C2.87184306 107.06604799 -3.47886299 103.17000211 -9.90185547 99.0078125 C-13.64067007 96.59727056 -17.33986921 94.24979685 -21.30859375 92.234375 C-29.6994142 87.82108159 -29.6994142 87.82108159 -31.125 83.8515625 C-31.34375 81 -31.34375 81 -31.25390625 77.89453125 C-31.21157228 73.65643068 -31.9717309 69.83069751 -32.78125 65.6875 C-35.00331555 53.24367043 -36.05626249 38.59349496 -32.21875 26.375 C-30.88915671 25.03793708 -29.55617119 23.7042329 -28.21875 22.375 C-27.95942755 20.34465363 -27.95942755 20.34465363 -28.34375 18.25 C-28.62549752 12.16224114 -25.84642357 8.07410274 -22.21875 3.375 C-16.71216202 -2.40691738 -7.34988875 -2.0703912 0 0 Z " fill="#F4F4F5" transform="translate(599.21875,162.625)"/>
<path d="M0 0 C0.495 0.99 0.495 0.99 1 2 C0.23413086 3.68212891 0.23413086 3.68212891 -1.03515625 5.7265625 C-1.50816162 6.4995166 -1.98116699 7.2724707 -2.46850586 8.06884766 C-3.25753296 9.33414307 -3.25753296 9.33414307 -4.0625 10.625 C-5.17065788 12.4366523 -6.27736581 14.2491921 -7.3828125 16.0625 C-7.97094727 17.02414062 -8.55908203 17.98578125 -9.16503906 18.9765625 C-12.31113299 24.16033408 -15.37717027 29.39027924 -18.4375 34.625 C-19.0157251 35.60678223 -19.5939502 36.58856445 -20.18969727 37.60009766 C-23.70939806 43.62145888 -26.96755089 49.7189272 -30 56 C-31 53 -31 53 -30.0625 50.8125 C-29.711875 50.214375 -29.36125 49.61625 -29 49 C-31.475 49.495 -31.475 49.495 -34 50 C-34.24492187 50.81726563 -34.48984375 51.63453125 -34.7421875 52.4765625 C-36.22547612 56.63161324 -38.11800949 60.45321289 -40.125 64.375 C-40.49753906 65.11105469 -40.87007813 65.84710937 -41.25390625 66.60546875 C-42.1656122 68.40550358 -43.08229932 70.20301402 -44 72 C-45 69 -45 69 -44.09472656 66.55834961 C-43.37494629 65.11987671 -43.37494629 65.11987671 -42.640625 63.65234375 C-42.10743652 62.58089111 -41.57424805 61.50943848 -41.02490234 60.40551758 C-40.14632568 58.68884888 -40.14632568 58.68884888 -39.25 56.9375 C-38.65525879 55.76533936 -38.06051758 54.59317871 -37.44775391 53.38549805 C-13.63820268 6.81910134 -13.63820268 6.81910134 0 0 Z " fill="#1A1A1B" transform="translate(468,621)"/>
<path d="M0 0 C2 0.25 2 0.25 4 1 C4.495 2.485 4.495 2.485 5 4 C-1.14859098 11.54599802 -12.76435075 15.23393541 -22 17 C-27.99823038 17.42960806 -33.9971613 17.24253894 -40 17 C-36.62257387 12.78929813 -32.8598286 11.87005685 -27.8125 10.6875 C-21.13545731 8.98926089 -14.793966 6.91200471 -8.4375 4.25 C-7.70571533 3.94408936 -6.97393066 3.63817871 -6.2199707 3.32299805 C-2.86774008 2.05051162 -2.86774008 2.05051162 0 0 Z " fill="#202020" transform="translate(416,177)"/>
<path d="M0 0 C4.26283956 0.35523663 7.16674541 0.96557464 10.875 3.125 C16.64926389 6.20758575 21.73709713 4.67887086 27.75 2.875 C31.04914647 1.98676826 32.77534961 2.02283321 36 3 C36 5.25 36 5.25 35 8 C28.03279472 12.8467515 20.30217844 13.84592793 12 13 C6.96011423 10.62269539 3.16875751 6.56211188 0 2 C0 1.34 0 0.68 0 0 Z " fill="#212121" transform="translate(460,145)"/>
<path d="M0 0 C4.75 1.875 4.75 1.875 7 3 C11.32941709 3.22393537 14.99839014 3.12080548 19.1875 2 C22.37858593 1.16299385 24.74800211 0.79675013 28 1 C28.33 2.65 28.66 4.3 29 6 C27.730447 6.64834654 26.45930294 7.29357815 25.1875 7.9375 C24.47980469 8.29714844 23.77210938 8.65679687 23.04296875 9.02734375 C18.08193307 11.38928999 13.40584898 11.62213503 8 11 C4.14455202 9.00342873 2.40194908 7.60292362 0 4 C0 2.68 0 1.36 0 0 Z " fill="#232323" transform="translate(524,183)"/>
<path d="M0 0 C4.75 1.875 4.75 1.875 7 3 C10.73703103 3.21559794 13.56478547 3.14797294 17.125 1.9375 C20.2674751 0.91277986 21.87399551 1.08058691 25 2 C25 3.65 25 5.3 25 7 C19.55421926 10.66998267 14.65850399 12.47168974 8 12 C4.61209382 10.36654523 2.74499303 9.08362622 0.625 6 C0 4 0 4 0 0 Z " fill="#222223" transform="translate(576,220)"/>
<path d="M0 0 C0.556875 0.7425 1.11375 1.485 1.6875 2.25 C7.71486823 9.41768114 14.43262608 11.75640804 23.5625 12.6875 C25.04088249 12.80226028 26.51988019 12.91038941 28 13 C27.6875 14.875 27.6875 14.875 27 17 C22.71575363 19.85616425 19.02846541 19.60431112 14 19 C8.61547272 17.27657864 4.65721085 14.32215828 1 10 C-0.1577506 6.52674819 -0.06866652 3.63932552 0 0 Z " fill="#1D1D1D" transform="translate(623,262)"/>
<path d="M0 0 C0.33 0 0.66 0 1 0 C1.99 6.27 2.98 12.54 4 19 C-0.95 19.33 -5.9 19.66 -11 20 C-10.45730469 19.05898437 -9.91460937 18.11796875 -9.35546875 17.1484375 C-8.63272484 15.89067537 -7.91007352 14.63286003 -7.1875 13.375 C-6.83107422 12.75753906 -6.47464844 12.14007813 -6.10742188 11.50390625 C-3.94086828 7.72734494 -1.9095701 3.91552228 0 0 Z " fill="#EEEEEE" transform="translate(441,195)"/>
<path d="M0 0 C4.43667762 1.42232288 7.37537475 3.83847533 10.6875 7 C11.20280273 7.48331787 11.71810547 7.96663574 12.24902344 8.46459961 C13.84203945 9.96691444 15.42253461 11.48137697 17 13 C17.50418457 13.48227051 18.00836914 13.96454102 18.52783203 14.46142578 C24.63424453 20.32544017 24.63424453 20.32544017 27 23 C27 23.66 27 24.32 27 25 C22.23742489 23.3410208 18.18173873 20.79369639 13.9375 18.125 C13.23044922 17.69058594 12.52339844 17.25617188 11.79492188 16.80859375 C8.11300802 14.50610114 4.92271205 12.26432775 2 9 C3.1446875 9.495 3.1446875 9.495 4.3125 10 C6.99069135 11.17436686 6.99069135 11.17436686 10 11 C10 10.34 10 9.68 10 9 C8.38244791 7.5875304 6.70537368 6.24258458 5 4.9375 C3.31755444 3.64528834 1.64646581 2.33775347 0 1 C0 0.67 0 0.34 0 0 Z " fill="#191A1A" transform="translate(618,281)"/>
<path d="M0 0 C-1.28913487 0.67154933 -2.58140204 1.33708859 -3.875 2 C-4.59429687 2.37125 -5.31359375 2.7425 -6.0546875 3.125 C-8 4 -8 4 -10 4 C-10 4.66 -10 5.32 -10 6 C-5.545 5.505 -5.545 5.505 -1 5 C-4.27566335 8.27566335 -8.68056538 9.19069592 -13 10.6875 C-13.928125 11.02072266 -14.85625 11.35394531 -15.8125 11.69726562 C-16.699375 12.00728516 -17.58625 12.31730469 -18.5 12.63671875 C-19.3146875 12.92248779 -20.129375 13.20825684 -20.96875 13.50268555 C-23 14 -23 14 -25 13 C-20.50535281 8.61497835 -15.73851793 5.53771958 -10.25 2.5625 C-9.58798584 2.19640625 -8.92597168 1.8303125 -8.24389648 1.453125 C-3.36703513 -1.12234504 -3.36703513 -1.12234504 0 0 Z " fill="#171718" transform="translate(386,229)"/>
<path d="M0 0 C0.33 0 0.66 0 1 0 C1 12.87 1 25.74 1 39 C0.67 39 0.34 39 0 39 C-0.33 41.31 -0.66 43.62 -1 46 C-1.33 46 -1.66 46 -2 46 C-1.88106117 40.73456671 -1.75677206 35.46929586 -1.62768555 30.20410156 C-1.58457461 28.41572434 -1.54288454 26.62731224 -1.50268555 24.83886719 C-1.44440049 22.25705489 -1.38087912 19.67541432 -1.31640625 17.09375 C-1.29969376 16.30383667 -1.28298126 15.51392334 -1.26576233 14.70007324 C-1.13555486 9.73739671 -0.68812481 4.9172762 0 0 Z " fill="#EEEEEE" transform="translate(405,565)"/>
<path d="M0 0 C4.75 1.875 4.75 1.875 7 3 C12.75396962 3.20189367 18.29634701 2.73936242 24 2 C20.87074533 5.12925467 17.02219631 4.86239665 12.75 5.4375 C9.86895888 5.76366676 9.86895888 5.76366676 8 8 C10.31 8.66 12.62 9.32 15 10 C15 10.33 15 10.66 15 11 C9.29060212 11.45675183 6.44872541 10.62105556 2 7 C0 4 0 4 0 0 Z " fill="#1A1A1A" transform="translate(524,183)"/>
<path d="M0 0 C-0.42611351 1.75280733 -0.86639267 3.50217435 -1.3125 5.25 C-1.55613281 6.22453125 -1.79976563 7.1990625 -2.05078125 8.203125 C-3.26043655 11.76737684 -4.57466155 14.28733078 -8 16 C-8 15.34 -8 14.68 -8 14 C-8.99 14.33 -9.98 14.66 -11 15 C-9.53200483 10.10668277 -7.66971326 5.36956975 -5 1 C-3 0 -3 0 0 0 Z " fill="#262626" transform="translate(439,670)"/>
<path d="M0 0 C-1.98 0.33 -3.96 0.66 -6 1 C-6 1.66 -6 2.32 -6 3 C-4.68 3.66 -3.36 4.32 -2 5 C-3 6 -3 6 -6.59765625 6.09765625 C-8.08596867 6.0909822 -9.57426432 6.07902183 -11.0625 6.0625 C-11.82111328 6.05798828 -12.57972656 6.05347656 -13.36132812 6.04882812 C-15.24091871 6.0370068 -17.12046899 6.01907078 -19 6 C-16.06310431 2.65443251 -13.80089962 1.29226405 -9.5 0.1875 C-8.5615625 -0.06644531 -7.623125 -0.32039062 -6.65625 -0.58203125 C-4.02207613 -0.99652626 -2.49122615 -0.86370341 0 0 Z " fill="#121212" transform="translate(395,188)"/>
<path d="M0 0 C0.33 0 0.66 0 1 0 C2.25025157 9.25186159 2.99332654 20.02002038 0 29 C-0.66 29 -1.32 29 -2 29 C-1.49929946 19.31623842 -0.99881766 9.64815354 0 0 Z " fill="#DDDDDE" transform="translate(412,639)"/>
<path d="M0 0 C1.49080078 0.02707031 1.49080078 0.02707031 3.01171875 0.0546875 C3.77097656 0.07789063 4.53023437 0.10109375 5.3125 0.125 C4.3125 3.125 4.3125 3.125 1.3125 5.125 C-1.16796875 5.3203125 -1.16796875 5.3203125 -3.875 5.25 C-4.77605469 5.23195313 -5.67710937 5.21390625 -6.60546875 5.1953125 C-7.29253906 5.17210937 -7.97960937 5.14890625 -8.6875 5.125 C-8.6875 4.135 -8.6875 3.145 -8.6875 2.125 C-5.26655758 -0.15562828 -4.00562778 -0.09425007 0 0 Z " fill="#2D2D2E" transform="translate(645.6875,275.875)"/>
<path d="M0 0 C0.33 0 0.66 0 1 0 C1.05455124 2.66694948 1.09393392 5.33275498 1.125 8 C1.14175781 8.74378906 1.15851563 9.48757813 1.17578125 10.25390625 C1.22144715 15.50548443 0.45712451 19.9516946 -1 25 C-1.33 25 -1.66 25 -2 25 C-2.3690205 8.29157175 -2.3690205 8.29157175 0 0 Z " fill="#E3E3E3" transform="translate(407,714)"/>
<path d="M0 0 C0.33 0.66 0.66 1.32 1 2 C-0.43359375 4.6015625 -0.43359375 4.6015625 -2.4375 7.625 C-3.09621094 8.62789062 -3.75492187 9.63078125 -4.43359375 10.6640625 C-4.95050781 11.43492187 -5.46742188 12.20578125 -6 13 C-6.66 12.34 -7.32 11.68 -8 11 C-8.99 11.66 -9.98 12.32 -11 13 C-9.56951306 9.81716656 -7.80982757 7.42084342 -5.5 4.8125 C-4.58734375 3.77029297 -4.58734375 3.77029297 -3.65625 2.70703125 C-2 1 -2 1 0 0 Z " fill="#111111" transform="translate(468,621)"/>
<path d="M0 0 C0.99 0.33 1.98 0.66 3 1 C3 1.66 3 2.32 3 3 C3.66 3.66 4.32 4.32 5 5 C5 5.66 5 6.32 5 7 C-1.4 8.35384615 -1.4 8.35384615 -4.4375 6.5625 C-4.953125 6.046875 -5.46875 5.53125 -6 5 C-4.60804085 2.2160817 -2.84424221 2.02101003 0 1 C0 0.67 0 0.34 0 0 Z " fill="#2C2C2D" transform="translate(394,186)"/>
<path d="M0 0 C1.1171875 1.640625 1.1171875 1.640625 2 4 C1.3203125 6.796875 1.3203125 6.796875 0.125 9.75 C-0.26429688 10.73484375 -0.65359375 11.7196875 -1.0546875 12.734375 C-1.36664063 13.48203125 -1.67859375 14.2296875 -2 15 C-2.66 15 -3.32 15 -4 15 C-3.40546697 4.44191344 -3.40546697 4.44191344 0 0 Z " fill="#EEEEEF" transform="translate(411,713)"/>
<path d="M0 0 C1.58246707 -0.08153933 3.16616273 -0.13943557 4.75 -0.1875 C6.07257812 -0.23970703 6.07257812 -0.23970703 7.421875 -0.29296875 C10 0 10 0 14 3 C8.39 3 2.78 3 -3 3 C-2.01 2.67 -1.02 2.34 0 2 C0 1.34 0 0.68 0 0 Z " fill="#E5E5E6" transform="translate(585,149)"/>
<path d="M0 0 C2.475 0.99 2.475 0.99 5 2 C5.33 1.34 5.66 0.68 6 0 C6 2.64 6 5.28 6 8 C5.01 8.33 4.02 8.66 3 9 C0.70620251 5.55930376 0 4.27709699 0 0 Z " fill="#2D2D2D" transform="translate(407,731)"/>
<path d="M0 0 C1.65 0.33 3.3 0.66 5 1 C5 3.31 5 5.62 5 8 C4.34 6.68 3.68 5.36 3 4 C2.34 4.66 1.68 5.32 1 6 C0.01 6 -0.98 6 -2 6 C-4.15028304 6.94978897 -4.15028304 6.94978897 -6 8 C-6.66 7.34 -7.32 6.68 -8 6 C-6.865625 5.566875 -5.73125 5.13375 -4.5625 4.6875 C-2.7990625 3.8521875 -2.7990625 3.8521875 -1 3 C-0.67 2.01 -0.34 1.02 0 0 Z " fill="#E2E2E2" transform="translate(553,186)"/>
<path d="M0 0 C2.97 0.495 2.97 0.495 6 1 C5.01 1.33 4.02 1.66 3 2 C7.49169928 7.53038493 7.49169928 7.53038493 13 12 C8.40920896 11.54172489 6.63753749 10.03476635 3.6875 6.5625 C2.99011719 5.75941406 2.29273438 4.95632812 1.57421875 4.12890625 C0 2 0 2 0 0 Z " fill="#111111" transform="translate(460,145)"/>
<path d="M0 0 C0.66 0 1.32 0 2 0 C3.00484204 1.95585325 4.00373805 3.91476237 5 5.875 C5.556875 6.96554687 6.11375 8.05609375 6.6875 9.1796875 C8 12 8 12 8 14 C7.34 14 6.68 14 6 14 C4.99515796 12.04414675 3.99626195 10.08523763 3 8.125 C2.1646875 6.48917969 2.1646875 6.48917969 1.3125 4.8203125 C0 2 0 2 0 0 Z " fill="#E3E3E3" transform="translate(378,433)"/>
<path d="M0 0 C0.33 0 0.66 0 1 0 C1.33 3.96 1.66 7.92 2 12 C1.01 12 0.02 12 -1 12 C-1.02687279 10.18757948 -1.04633715 8.37504767 -1.0625 6.5625 C-1.07410156 5.55316406 -1.08570313 4.54382813 -1.09765625 3.50390625 C-1 1 -1 1 0 0 Z " fill="#E6E6E6" transform="translate(451,179)"/>
<path d="M0 0 C0.33 0 0.66 0 1 0 C1.33 4.62 1.66 9.24 2 14 C1.01 14 0.02 14 -1 14 C-0.67 9.38 -0.34 4.76 0 0 Z " fill="#EDEDEE" transform="translate(627,771)"/>
<path d="M0 0 C0.99 0 1.98 0 3 0 C2.91291331 1.45945288 2.80473093 2.91765868 2.6875 4.375 C2.62949219 5.18710937 2.57148437 5.99921875 2.51171875 6.8359375 C2 9 2 9 -1 11 C-0.67 7.37 -0.34 3.74 0 0 Z " fill="#E9E9E9" transform="translate(623,804)"/>
<path d="M0 0 C0.33 0 0.66 0 1 0 C1 3.96 1 7.92 1 12 C0.01 12 -0.98 12 -2 12 C-2.28571429 3.42857143 -2.28571429 3.42857143 0 0 Z " fill="#2A2B2B" transform="translate(619,763)"/>
<path d="M0 0 C0.99 0.33 1.98 0.66 3 1 C3.94921875 3.94140625 3.94921875 3.94140625 4.6875 7.5625 C4.93886719 8.76003906 5.19023437 9.95757812 5.44921875 11.19140625 C5.63097656 12.11824219 5.81273437 13.04507812 6 14 C5.34 14 4.68 14 4 14 C3.32968281 12.0429132 2.66385317 10.08428887 2 8.125 C1.62875 7.03445313 1.2575 5.94390625 0.875 4.8203125 C0 2 0 2 0 0 Z " fill="#ECEDED" transform="translate(396,474)"/>
<path d="M0 0 C1.32 0 2.64 0 4 0 C3.67 1.98 3.34 3.96 3 6 C1.68 6 0.36 6 -1 6 C-0.67 4.02 -0.34 2.04 0 0 Z " fill="#282829" transform="translate(451,640)"/>
<path d="M0 0 C1.1725131 0.95117134 2.33787015 1.91117009 3.5 2.875 C4.47453125 3.67550781 4.47453125 3.67550781 5.46875 4.4921875 C5.9740625 4.98976563 6.479375 5.48734375 7 6 C7 6.66 7 7.32 7 8 C3.62496331 6.8141763 1.35277269 5.72426311 -1 3 C-0.67 2.01 -0.34 1.02 0 0 Z " fill="#111111" transform="translate(638,298)"/>
<path d="M0 0 C0.33 0 0.66 0 1 0 C1.91657981 5.38490641 2.11138159 10.54230189 2 16 C-0.50659063 11.41652 -1.46911963 6.68068362 -0.5625 1.5 C-0.376875 1.005 -0.19125 0.51 0 0 Z " fill="#E5E5E5" transform="translate(339,175)"/>
<path d="M0 0 C2.38672669 2.96283313 4.7353371 5.94270509 7 9 C6.401875 8.67 5.80375 8.34 5.1875 8 C2.94613529 6.79212012 2.94613529 6.79212012 0 7 C0 4.69 0 2.38 0 0 Z " fill="#131313" transform="translate(623,262)"/>
<path d="M0 0 C2 2 2 2 2.25 4.3125 C1.98092002 7.20510975 1.20264159 9.36922151 0 12 C-0.33 12 -0.66 12 -1 12 C-1.02698189 10.37509046 -1.04638757 8.75005367 -1.0625 7.125 C-1.07410156 6.22007812 -1.08570313 5.31515625 -1.09765625 4.3828125 C-1 2 -1 2 0 0 Z " fill="#ECECEC" transform="translate(566,200)"/>
<path d="M0 0 C0.33 0 0.66 0 1 0 C1.33 3.3 1.66 6.6 2 10 C1.01 10.33 0.02 10.66 -1 11 C-0.67 7.37 -0.34 3.74 0 0 Z " fill="#2A2A2B" transform="translate(620,707)"/>
<path d="M0 0 C0.99 0.33 1.98 0.66 3 1 C4.25 8.625 4.25 8.625 2 12 C1.855625 10.7625 1.71125 9.525 1.5625 8.25 C1.21311498 5.43495501 0.79620634 2.7298503 0 0 Z " fill="#EEEEEF" transform="translate(393,504)"/>
<path d="M0 0 C0.99 0 1.98 0 3 0 C3 3.3 3 6.6 3 10 C2.67 8.68 2.34 7.36 2 6 C1.34 6 0.68 6 0 6 C0 4.02 0 2.04 0 0 Z " fill="#ECECED" transform="translate(604,257)"/>
<path d="M0 0 C1.37473375 4.27694946 0.38688443 6.83934671 -1 11 C-1.66 11 -2.32 11 -3 11 C-2.69217504 9.35328588 -2.37860766 7.70764424 -2.0625 6.0625 C-1.88847656 5.14597656 -1.71445312 4.22945312 -1.53515625 3.28515625 C-1 1 -1 1 0 0 Z " fill="#E4E4E4" transform="translate(350,237)"/>
<path d="M0 0 C0.99 0 1.98 0 3 0 C2.67 2.31 2.34 4.62 2 7 C1.01 7.33 0.02 7.66 -1 8 C-0.67 5.36 -0.34 2.72 0 0 Z " fill="#2E2E2F" transform="translate(651,530)"/>
<path d="M0 0 C0.99 0 1.98 0 3 0 C3 2.31 3 4.62 3 7 C2.01 6.67 1.02 6.34 0 6 C0 4.02 0 2.04 0 0 Z " fill="#2B2B2C" transform="translate(406,680)"/>
<path d="M0 0 C0.66 0.66 1.32 1.32 2 2 C-2.29 1.34 -6.58 0.68 -11 0 C-11 -0.33 -11 -0.66 -11 -1 C-6.70830186 -2.26226416 -4.09639239 -1.7295879 0 0 Z " fill="#EBECEC" transform="translate(651,215)"/>
<path d="M0 0 C0.66 0.33 1.32 0.66 2 1 C0.02 3.97 0.02 3.97 -2 7 C-2.66 6.34 -3.32 5.68 -4 5 C-3 2 -3 2 0 0 Z " fill="#2B2B2C" transform="translate(460,631)"/>
<path d="M0 0 C0.33 0 0.66 0 1 0 C0.67 3.3 0.34 6.6 0 10 C-2.08120514 5.83758971 -2.24191133 5.17733811 -1 1 C-0.67 0.67 -0.34 0.34 0 0 Z " fill="#E9E9E9" transform="translate(569,187)"/>
<path d="M0 0 C0.33 0 0.66 0 1 0 C0.67 3.3 0.34 6.6 0 10 C-2.08120514 5.83758971 -2.24191133 5.17733811 -1 1 C-0.67 0.67 -0.34 0.34 0 0 Z " fill="#ECECEC" transform="translate(626,650)"/>
<path d="M0 0 C0.99 0 1.98 0 3 0 C3 0.99 3 1.98 3 3 C0.36 3.33 -2.28 3.66 -5 4 C-4.67 3.34 -4.34 2.68 -4 2 C-2.68 2 -1.36 2 0 2 C0 1.34 0 0.68 0 0 Z " fill="#EBEBEC" transform="translate(475,70)"/>
</svg>
